{
	"asset":{
		"generator":"Khronos glTF Blender I/O v3.5.30",
		"version":"2.0"
	},
	"extensionsUsed":[
		"KHR_materials_specular",
		"KHR_materials_ior"
	],
	"scene":0,
	"scenes":[
		{
			"name":"Scene",
			"nodes":[
				0,
				1,
				2,
				3,
				4,
				5,
				6,
				7,
				8
			]
		}
	],
	"nodes":[
		{
			"mesh":0,
			"name":"Cube",
			"scale":[
				0.41375231742858887,
				1,
				1
			],
			"translation":[
				0.03461544215679169,
				0,
				-1.9294096231460571
			]
		},
		{
			"name":"Vazio",
			"rotation":[
				0.5,
				0.5,
				-0.5,
				0.5
			]
		},
		{
			"mesh":1,
			"name":"Cilindro",
			"rotation":[
				0,
				0,
				-0.7001262903213501,
				0.7140190601348877
			],
			"scale":[
				0.18285591900348663,
				0.07573982328176498,
				0.18288515508174896
			],
			"translation":[
				0.053778890520334244,
				2.2259857654571533,
				-0.9983146786689758
			]
		},
		{
			"mesh":2,
			"name":"Cilindro.001",
			"rotation":[
				0,
				0,
				-0.7071068286895752,
				0.7071068286895752
			],
			"scale":[
				0.04701747000217438,
				0.019453587010502815,
				0.04701747000217438
			],
			"translation":[
				0.11317326873540878,
				2.2249650955200195,
				-0.9975610971450806
			]
		},
		{
			"mesh":3,
			"name":"Cubo",
			"scale":[
				0.10792616009712219,
				0.260847270488739,
				0.260847270488739
			],
			"translation":[
				0.03461544215679169,
				0.9662109017372131,
				-1.9378269910812378
			]
		},
		{
			"mesh":4,
			"name":"Cubo.001",
			"rotation":[
				0,
				0.6755901575088501,
				0,
				0.7372773885726929
			],
			"scale":[
				0.10931611061096191,
				0.10931611061096191,
				0.10931611061096191
			],
			"translation":[
				0.02498466894030571,
				0.952323317527771,
				-0.6365342140197754
			]
		},
		{
			"mesh":5,
			"name":"Cubo.002",
			"rotation":[
				0,
				0.6755901575088501,
				0,
				0.7372773885726929
			],
			"scale":[
				0.10931611061096191,
				0.10931611061096191,
				0.10931611061096191
			],
			"translation":[
				0.04294859245419502,
				0.952323317527771,
				-0.6365342140197754
			]
		},
		{
			"mesh":6,
			"name":"Cubo.003",
			"rotation":[
				0,
				0.6755901575088501,
				0,
				0.7372773885726929
			],
			"scale":[
				0.10931611061096191,
				0.10931611061096191,
				0.10931611061096191
			],
			"translation":[
				0.02498466894030571,
				0.952323317527771,
				-0.6365342140197754
			]
		},
		{
			"mesh":7,
			"name":"Cube.001",
			"scale":[
				0.41375231742858887,
				1,
				1
			],
			"translation":[
				0.03461544215679169,
				0,
				-1.9294096231460571
			]
		}
	],
	"materials":[
		{
			"doubleSided":true,
			"extensions":{
				"KHR_materials_specular":{
					"specularColorFactor":[
						0.9107387888309743,
						0.9107387888309743,
						0.9107387888309743
					]
				},
				"KHR_materials_ior":{
					"ior":1.4500000476837158
				}
			},
			"name":"Material",
			"pbrMetallicRoughness":{
				"baseColorFactor":[
					0.10165653377771378,
					0.21402888000011444,
					0.1967248022556305,
					1
				],
				"metallicFactor":0.5072463750839233,
				"roughnessFactor":0.5
			}
		},
		{
			"doubleSided":true,
			"name":"Materiais",
			"pbrMetallicRoughness":{
				"baseColorFactor":[
					0.025393681600689888,
					0.025393681600689888,
					0.025393681600689888,
					1
				],
				"metallicFactor":0,
				"roughnessFactor":0.5
			}
		},
		{
			"doubleSided":true,
			"name":"Materiais.001",
			"pbrMetallicRoughness":{
				"baseColorFactor":[
					0.02358604036271572,
					0.02254856377840042,
					0.054958246648311615,
					1
				],
				"metallicFactor":0,
				"roughnessFactor":0.5
			}
		},
		{
			"doubleSided":true,
			"extensions":{
				"KHR_materials_specular":{
					"specularColorFactor":[
						1.0653925800941788,
						1.0653925800941788,
						1.0653925800941788
					]
				},
				"KHR_materials_ior":{
					"ior":1.4500000476837158
				}
			},
			"name":"Materiais.002",
			"pbrMetallicRoughness":{
				"baseColorFactor":[
					0.800000011920929,
					0.800000011920929,
					0.800000011920929,
					1
				],
				"roughnessFactor":0.28985506296157837
			}
		},
		{
			"doubleSided":true,
			"name":"Materiais.005",
			"pbrMetallicRoughness":{
				"baseColorFactor":[
					0.800000011920929,
					0.800000011920929,
					0.800000011920929,
					1
				],
				"roughnessFactor":0.296999990940094
			}
		},
		{
			"doubleSided":true,
			"name":"Materiais.003",
			"pbrMetallicRoughness":{
				"baseColorFactor":[
					0.800000011920929,
					0.800000011920929,
					0.800000011920929,
					1
				],
				"roughnessFactor":0.2971014380455017
			}
		},
		{
			"doubleSided":true,
			"name":"Materiais.004",
			"pbrMetallicRoughness":{
				"baseColorFactor":[
					0.800000011920929,
					0.800000011920929,
					0.800000011920929,
					1
				],
				"roughnessFactor":0.296999990940094
			}
		},
		{
			"doubleSided":true,
			"extensions":{
				"KHR_materials_specular":{
					"specularColorFactor":[
						0.9107387888309743,
						0.9107387888309743,
						0.9107387888309743
					]
				},
				"KHR_materials_ior":{
					"ior":1.4500000476837158
				}
			},
			"name":"Material.001",
			"pbrMetallicRoughness":{
				"baseColorFactor":[
					0,
					0,
					0,
					1
				],
				"metallicFactor":0.5072463750839233,
				"roughnessFactor":0.5
			}
		}
	],
	"meshes":[
		{
			"name":"Cube",
			"primitives":[
				{
					"attributes":{
						"POSITION":0,
						"TEXCOORD_0":1,
						"NORMAL":2
					},
					"indices":3,
					"material":0
				}
			]
		},
		{
			"name":"Cilindro",
			"primitives":[
				{
					"attributes":{
						"POSITION":4,
						"TEXCOORD_0":5,
						"NORMAL":6
					},
					"indices":7,
					"material":1
				}
			]
		},
		{
			"name":"Cilindro.001",
			"primitives":[
				{
					"attributes":{
						"POSITION":8,
						"TEXCOORD_0":9,
						"NORMAL":10
					},
					"indices":11,
					"material":2
				}
			]
		},
		{
			"name":"Cubo",
			"primitives":[
				{
					"attributes":{
						"POSITION":12,
						"TEXCOORD_0":13,
						"NORMAL":14
					},
					"indices":15,
					"material":3
				}
			]
		},
		{
			"name":"Cubo.001",
			"primitives":[
				{
					"attributes":{
						"POSITION":16,
						"TEXCOORD_0":17,
						"NORMAL":18
					},
					"indices":19,
					"material":4
				}
			]
		},
		{
			"name":"Cubo.002",
			"primitives":[
				{
					"attributes":{
						"POSITION":20,
						"TEXCOORD_0":21,
						"NORMAL":22
					},
					"indices":19,
					"material":5
				}
			]
		},
		{
			"name":"Cubo.004",
			"primitives":[
				{
					"attributes":{
						"POSITION":23,
						"TEXCOORD_0":24,
						"NORMAL":25
					},
					"indices":19,
					"material":6
				}
			]
		},
		{
			"name":"Cube.001",
			"primitives":[
				{
					"attributes":{
						"POSITION":26,
						"TEXCOORD_0":27,
						"NORMAL":28
					},
					"indices":29,
					"material":7
				}
			]
		}
	],
	"accessors":[
		{
			"bufferView":0,
			"componentType":5126,
			"count":172,
			"max":[
				0.21572256088256836,
				2.6759254932403564,
				1.3847506046295166
			],
			"min":[
				-0.21572256088256836,
				-2.9205234050750732,
				-1.4216046333312988
			],
			"type":"VEC3"
		},
		{
			"bufferView":1,
			"componentType":5126,
			"count":172,
			"type":"VEC2"
		},
		{
			"bufferView":2,
			"componentType":5126,
			"count":172,
			"type":"VEC3"
		},
		{
			"bufferView":3,
			"componentType":5123,
			"count":300,
			"type":"SCALAR"
		},
		{
			"bufferView":4,
			"componentType":5126,
			"count":192,
			"max":[
				1,
				1,
				1
			],
			"min":[
				-1,
				-1,
				-1
			],
			"type":"VEC3"
		},
		{
			"bufferView":5,
			"componentType":5126,
			"count":192,
			"type":"VEC2"
		},
		{
			"bufferView":6,
			"componentType":5126,
			"count":192,
			"type":"VEC3"
		},
		{
			"bufferView":7,
			"componentType":5123,
			"count":372,
			"type":"SCALAR"
		},
		{
			"bufferView":8,
			"componentType":5126,
			"count":192,
			"max":[
				1,
				1,
				1.0000019073486328
			],
			"min":[
				-1,
				0.8181223273277283,
				-0.9999980926513672
			],
			"type":"VEC3"
		},
		{
			"bufferView":9,
			"componentType":5126,
			"count":192,
			"type":"VEC2"
		},
		{
			"bufferView":10,
			"componentType":5126,
			"count":192,
			"type":"VEC3"
		},
		{
			"bufferView":11,
			"componentType":5123,
			"count":372,
			"type":"SCALAR"
		},
		{
			"bufferView":12,
			"componentType":5126,
			"count":120,
			"max":[
				0.853296160697937,
				0.9999998807907104,
				0.9999999403953552
			],
			"min":[
				0.47675204277038574,
				-0.9999999403953552,
				-0.9999998807907104
			],
			"type":"VEC3"
		},
		{
			"bufferView":13,
			"componentType":5126,
			"count":120,
			"type":"VEC2"
		},
		{
			"bufferView":14,
			"componentType":5126,
			"count":120,
			"type":"VEC3"
		},
		{
			"bufferView":15,
			"componentType":5123,
			"count":240,
			"type":"SCALAR"
		},
		{
			"bufferView":16,
			"componentType":5126,
			"count":48,
			"max":[
				24.926694869995117,
				0.8997044563293457,
				-1.5916892290115356
			],
			"min":[
				22.926694869995117,
				-2.5767040252685547,
				-2.5384035110473633
			],
			"type":"VEC3"
		},
		{
			"bufferView":17,
			"componentType":5126,
			"count":48,
			"type":"VEC2"
		},
		{
			"bufferView":18,
			"componentType":5126,
			"count":48,
			"type":"VEC3"
		},
		{
			"bufferView":19,
			"componentType":5123,
			"count":84,
			"type":"SCALAR"
		},
		{
			"bufferView":20,
			"componentType":5126,
			"count":48,
			"max":[
				0.9999997615814209,
				4.278519630432129,
				0.5016268491744995
			],
			"min":[
				-0.9999997615814209,
				-1.5182807445526123,
				-0.4450874328613281
			],
			"type":"VEC3"
		},
		{
			"bufferView":21,
			"componentType":5126,
			"count":48,
			"type":"VEC2"
		},
		{
			"bufferView":22,
			"componentType":5126,
			"count":48,
			"type":"VEC3"
		},
		{
			"bufferView":23,
			"componentType":5126,
			"count":48,
			"max":[
				24.926694869995117,
				5.336945056915283,
				-1.5916892290115356
			],
			"min":[
				22.926694869995117,
				1.8605365753173828,
				-2.5384035110473633
			],
			"type":"VEC3"
		},
		{
			"bufferView":24,
			"componentType":5126,
			"count":48,
			"type":"VEC2"
		},
		{
			"bufferView":25,
			"componentType":5126,
			"count":48,
			"type":"VEC3"
		},
		{
			"bufferView":26,
			"componentType":5126,
			"count":184,
			"max":[
				0.19014739990234375,
				2.6759254932403564,
				1.3847506046295166
			],
			"min":[
				-0.2860630750656128,
				-2.9205234050750732,
				-1.4216046333312988
			],
			"type":"VEC3"
		},
		{
			"bufferView":27,
			"componentType":5126,
			"count":184,
			"type":"VEC2"
		},
		{
			"bufferView":28,
			"componentType":5126,
			"count":184,
			"type":"VEC3"
		},
		{
			"bufferView":29,
			"componentType":5123,
			"count":300,
			"type":"SCALAR"
		}
	],
	"bufferViews":[
		{
			"buffer":0,
			"byteLength":2064,
			"byteOffset":0,
			"target":34962
		},
		{
			"buffer":0,
			"byteLength":1376,
			"byteOffset":2064,
			"target":34962
		},
		{
			"buffer":0,
			"byteLength":2064,
			"byteOffset":3440,
			"target":34962
		},
		{
			"buffer":0,
			"byteLength":600,
			"byteOffset":5504,
			"target":34963
		},
		{
			"buffer":0,
			"byteLength":2304,
			"byteOffset":6104,
			"target":34962
		},
		{
			"buffer":0,
			"byteLength":1536,
			"byteOffset":8408,
			"target":34962
		},
		{
			"buffer":0,
			"byteLength":2304,
			"byteOffset":9944,
			"target":34962
		},
		{
			"buffer":0,
			"byteLength":744,
			"byteOffset":12248,
			"target":34963
		},
		{
			"buffer":0,
			"byteLength":2304,
			"byteOffset":12992,
			"target":34962
		},
		{
			"buffer":0,
			"byteLength":1536,
			"byteOffset":15296,
			"target":34962
		},
		{
			"buffer":0,
			"byteLength":2304,
			"byteOffset":16832,
			"target":34962
		},
		{
			"buffer":0,
			"byteLength":744,
			"byteOffset":19136,
			"target":34963
		},
		{
			"buffer":0,
			"byteLength":1440,
			"byteOffset":19880,
			"target":34962
		},
		{
			"buffer":0,
			"byteLength":960,
			"byteOffset":21320,
			"target":34962
		},
		{
			"buffer":0,
			"byteLength":1440,
			"byteOffset":22280,
			"target":34962
		},
		{
			"buffer":0,
			"byteLength":480,
			"byteOffset":23720,
			"target":34963
		},
		{
			"buffer":0,
			"byteLength":576,
			"byteOffset":24200,
			"target":34962
		},
		{
			"buffer":0,
			"byteLength":384,
			"byteOffset":24776,
			"target":34962
		},
		{
			"buffer":0,
			"byteLength":576,
			"byteOffset":25160,
			"target":34962
		},
		{
			"buffer":0,
			"byteLength":168,
			"byteOffset":25736,
			"target":34963
		},
		{
			"buffer":0,
			"byteLength":576,
			"byteOffset":25904,
			"target":34962
		},
		{
			"buffer":0,
			"byteLength":384,
			"byteOffset":26480,
			"target":34962
		},
		{
			"buffer":0,
			"byteLength":576,
			"byteOffset":26864,
			"target":34962
		},
		{
			"buffer":0,
			"byteLength":576,
			"byteOffset":27440,
			"target":34962
		},
		{
			"buffer":0,
			"byteLength":384,
			"byteOffset":28016,
			"target":34962
		},
		{
			"buffer":0,
			"byteLength":576,
			"byteOffset":28400,
			"target":34962
		},
		{
			"buffer":0,
			"byteLength":2208,
			"byteOffset":28976,
			"target":34962
		},
		{
			"buffer":0,
			"byteLength":1472,
			"byteOffset":31184,
			"target":34962
		},
		{
			"buffer":0,
			"byteLength":2208,
			"byteOffset":32656,
			"target":34962
		},
		{
			"buffer":0,
			"byteLength":600,
			"byteOffset":34864,
			"target":34963
		}
	],
	"buffers":[
		{
			"byteLength":35464,
			"uri":"celular1.bin"
		}
	]
}
